<svg xmlns="http://www.w3.org/2000/svg" xml:space="preserve" width="1500" height="111" data-id="lg_TULqRHRahw61ZC6rVm" data-version="1" viewBox="0 0 1500 111"><g data-padding="20"><g transform="translate(10 1.975)scale(.96441)"><rect width="201.727" height="201.727" x="566.434" y="-727.227" fill="#009688" rx="13" ry="13" transform="matrix(.55 0 0 .55 174.59 400)"/><rect width="435.483" height="48.59" x="142.076" y="-362.04" fill="none" rx="0" ry="0" transform="translate(459.374 385.434)scale(1.02)"/><path fill="#009688" d="M615.36 54.745q-3.202 0-5.834-.857-2.632-.856-4.427-2.264l2.101-3.509q1.581 1.316 3.56 2.152 1.969.837 4.6.837 3.162 0 4.998-1.316 1.847-1.316 1.847-3.56 0-1.265-.53-2.254-.521-.99-2.04-1.928-1.51-.948-4.448-2.04-3.162-1.234-5.039-2.478-1.887-1.255-2.703-2.856-.816-1.602-.816-3.795t1.214-3.968q1.204-1.774 3.55-2.845 2.346-1.082 5.681-1.082 2.713 0 4.886.551t4.233 1.56l-1.53 3.55q-1.49-.877-3.489-1.468t-4.192-.592q-2.897 0-4.56 1.142t-1.662 2.938q0 1.142.48 2.02.479.877 1.907 1.703 1.428.836 4.274 1.887 3.427 1.275 5.416 2.683 2 1.397 2.836 3.04.826 1.652.826 3.753 0 2.856-1.418 4.865-1.428 2.02-3.947 3.07-2.53 1.061-5.774 1.061m35.7-.53h-18.42V23.513h18.42v3.6h-14.249v9.333h12.28v3.51h-12.28v10.658h14.25Zm27.897-2.458-2.896 2.988-14.913-14.657v14.127h-4.161V23.513h4.161v13.994l13.077-14.127 2.805 2.591-11.975 12.454Zm29.295 1.356-3.815 1.54-3.427-8.772h-14.209l-3.417 8.68-3.56-1.448 12.016-29.6h4.57Zm-14.341-25.48-5.794 14.74h11.536ZM734.434 52.9l-3.906 1.846-3.815-8.333q-1.448-3.12-3.641-4.437t-5.61-1.316h-.663v13.556h-4.162v-30.61q2.326-.225 4.447-.337 2.132-.102 4.54-.102 5.62 0 8.445 2.275 2.825 2.284 2.825 5.875 0 3.203-1.907 5.161-1.908 1.948-5.498 2.917 1.183.52 2.101 1.245.918.724 1.775 1.927.857 1.214 1.734 3.142Zm-17.635-26.05v10.301h4.824q3.162 0 5.13-1.397 1.98-1.408 1.98-4.04 0-2.192-1.847-3.62-1.836-1.418-5.263-1.418-1.489 0-2.672.04-1.183.041-2.152.133m43.697 27.896q-3.203 0-5.834-.857-2.632-.856-4.427-2.264l2.101-3.509q1.581 1.316 3.55 2.152 1.979.837 4.61.837 3.162 0 4.998-1.316 1.846-1.316 1.846-3.56 0-1.265-.53-2.254-.52-.99-2.04-1.928-1.51-.948-4.447-2.04-3.162-1.234-5.05-2.478-1.886-1.255-2.692-2.856-.816-1.602-.816-3.795t1.204-3.968q1.213-1.774 3.56-2.845 2.345-1.082 5.68-1.082 2.714 0 4.887.551t4.233 1.56l-1.53 3.55q-1.5-.877-3.489-1.468-1.999-.592-4.192-.592-2.897 0-4.56 1.142-1.672 1.143-1.672 2.938 0 1.142.49 2.02.479.877 1.907 1.703 1.428.836 4.274 1.887 3.417 1.275 5.416 2.683 1.999 1.397 2.825 3.04.837 1.652.837 3.753 0 2.856-1.428 4.865-1.418 2.02-3.948 3.07-2.52 1.061-5.763 1.061m42.198-1.632-3.825 1.54-3.417-8.772h-14.209l-3.427 8.68-3.55-1.448 12.016-29.6h4.57Zm-14.352-25.48-5.783 14.74h11.536ZM828.867 52.9l-3.907 1.846-3.814-8.333q-1.449-3.12-3.642-4.437t-5.61-1.316h-.663v13.556h-4.161v-30.61q2.315-.225 4.447-.337 2.132-.102 4.539-.102 5.61 0 8.445 2.275 2.826 2.284 2.826 5.875 0 3.203-1.908 5.161-1.907 1.948-5.508 2.917 1.194.52 2.112 1.245.918.724 1.775 1.927.856 1.214 1.734 3.142Zm-17.636-26.05v10.3h4.825q3.162 0 5.13-1.397 1.98-1.408 1.98-4.04 0-2.192-1.847-3.62-1.846-1.418-5.263-1.418-1.49 0-2.673.04-1.183.041-2.152.133m47.818 26.265-3.815 1.54-3.417-8.772h-14.219l-3.417 8.68-3.55-1.448 12.016-29.6h4.56Zm-14.342-25.48-5.793 14.74h11.536Zm28.336 26.592h-4.692l-11.271-29.61 4.07-1.572 9.649 26.622 9.7-26.489 3.774 1.438Zm37.669-1.112-3.815 1.54-3.417-8.772h-14.209l-3.427 8.68-3.55-1.448 12.016-29.6h4.56Zm-14.342-25.48-5.783 14.74h11.536Zm22.675 26.582h-3.947V23.513h5.528l13.556 25.53v-25.53h3.947v30.702h-5.436l-13.648-25.347Zm51.887-1.102-3.814 1.54-3.417-8.772h-14.209l-3.427 8.68-3.55-1.448 12.016-29.6h4.56Zm-14.34-25.48-5.784 14.74h11.536Zm22.674 26.582h-3.948V23.513h5.529l13.556 25.53v-25.53h3.947v30.702h-5.437l-13.647-25.347Z"/><rect width="111.1" height="28.25" x="304.268" y="-351.87" fill="none" rx="0" ry="0" transform="translate(298.224 434.496)scale(1.02)"/><path fill="#009688" d="M611.851 97.85q-.54 0-.877-.346-.347-.337-.347-.878V79.164q0-.54.347-.887.337-.337.877-.337h5.1q1.887 0 3.366.836 1.48.847 2.295 2.306.816 1.468.816 3.406 0 1.887-.816 3.326-.816 1.448-2.295 2.264t-3.366.816h-3.906v5.732q0 .541-.327.878-.336.346-.867.346m1.194-17.646v8.415h3.906q1.194 0 2.142-.52.939-.52 1.47-1.469.52-.938.52-2.142 0-1.275-.52-2.233-.531-.949-1.47-1.5-.948-.55-2.142-.55Zm18.911 17.738q-2.04 0-3.631-.907-1.592-.898-2.5-2.5-.907-1.59-.907-3.65 0-2.092.908-3.693.907-1.592 2.499-2.5 1.59-.897 3.63-.897t3.622.898q1.58.907 2.499 2.5.918 1.6.918 3.691 0 2.06-.898 3.652-.908 1.601-2.489 2.5-1.58.906-3.651.906m0-2.11q1.377 0 2.448-.644 1.07-.632 1.683-1.744.612-1.112.612-2.56 0-1.459-.612-2.58-.612-1.123-1.683-1.755-1.071-.643-2.448-.643t-2.448.643q-1.071.632-1.683 1.754t-.612 2.581q0 1.448.612 2.56t1.683 1.744q1.07.643 2.448.643m13.27-6.65h-1.245q.02-1.55.776-2.775.754-1.224 2.02-1.938 1.254-.714 2.763-.714 1.398 0 2.112.44.714.447.56 1.11-.101.357-.315.541-.215.173-.52.204-.307.02-.664-.05-1.58-.256-2.815.07-1.244.337-1.958 1.122-.714.796-.714 1.99m-1.173 8.67q-.561 0-.867-.295-.306-.286-.306-.878V85.08q0-.56.306-.867t.867-.306q.591 0 .887.286.286.295.286.887v11.597q0 .561-.286.867-.296.306-.887.306m16.667 0h-.48q-1.305 0-2.335-.652-1.03-.643-1.632-1.755t-.602-2.54v-12.26q0-.51.336-.847.327-.326.837-.326.54 0 .867.326.336.337.336.847v12.26q0 1.122.623 1.867.622.734 1.57.734h.816q.429 0 .725.337.295.326.295.836t-.387.847q-.378.326-.97.326m-.276-11.393h-6.1q-.479 0-.785-.296t-.306-.704q0-.479.306-.765.306-.275.786-.275h6.1q.479 0 .785.275.306.286.306.765 0 .408-.306.704t-.786.296m6.396 11.393q-.46 0-.796-.326-.347-.337-.347-.867V83.958q0-1.816.684-3.162.693-1.357 1.958-2.11 1.255-.746 2.989-.746.51 0 .857.306.346.306.346.765t-.346.775-.857.316q-1.02 0-1.744.46t-1.112 1.274q-.378.816-.378 1.918v12.903q0 .53-.336.867-.327.326-.918.326m4.008-11.393h-6.426q-.49 0-.795-.296t-.306-.704q0-.479.306-.765.306-.275.795-.275h6.426q.48 0 .786.275.306.286.306.765 0 .408-.306.704t-.786.296m9.589 11.485q-2.04 0-3.63-.907-1.602-.898-2.5-2.5-.908-1.59-.908-3.65 0-2.092.908-3.693.898-1.592 2.5-2.5 1.59-.897 3.63-.897t3.621.898q1.581.907 2.5 2.5.917 1.6.917 3.691 0 2.06-.907 3.652-.908 1.601-2.49 2.5-1.58.906-3.64.906m0-2.11q1.377 0 2.448-.644 1.071-.632 1.683-1.744t.612-2.56q0-1.459-.612-2.58-.612-1.123-1.683-1.755-1.07-.643-2.448-.643t-2.448.643q-1.07.632-1.683 1.754-.612 1.122-.612 2.581 0 1.448.612 2.56t1.683 1.744q1.071.643 2.448.643m14.279 2.02h-.153q-1.101 0-1.938-.602-.846-.592-1.315-1.632-.47-1.03-.47-2.377V79.113q0-.54.317-.857.316-.316.856-.316.53 0 .857.316.316.316.316.857V93.24q0 .99.378 1.632.387.632 1 .632h.632q.49 0 .765.317.285.326.285.856 0 .541-.438.857-.429.316-1.092.316m5.63 0q-.53 0-.866-.326-.327-.337-.327-.867V85.1q0-.53.327-.867.336-.326.867-.326.54 0 .867.326.336.337.336.867v11.557q0 .53-.336.867-.327.326-.867.326m0-16.34q-.632 0-1.1-.48-.48-.469-.48-1.1 0-.695.48-1.143.468-.439 1.1-.439.643 0 1.113.44.469.447.469 1.141 0 .632-.46 1.102-.458.48-1.121.48m12.422 16.431q-2.04 0-3.63-.907-1.602-.898-2.5-2.5-.908-1.59-.908-3.65 0-2.092.908-3.693.898-1.592 2.5-2.5 1.59-.897 3.63-.897t3.621.898q1.581.907 2.5 2.5.917 1.6.917 3.691 0 2.06-.907 3.652-.908 1.601-2.49 2.5-1.58.906-3.64.906m0-2.11q1.377 0 2.448-.644 1.071-.632 1.683-1.744t.612-2.56q0-1.459-.612-2.58-.612-1.123-1.683-1.755-1.07-.643-2.448-.643t-2.448.643q-1.07.632-1.683 1.754-.612 1.122-.612 2.581 0 1.448.612 2.56t1.683 1.744q1.071.643 2.448.643"/><rect width="66.992" height="55.37" x="459.727" y="-11.216" fill="none" rx="0" ry="0" transform="rotate(-45.1 578.065 -4.988)scale(1.02)"/><path fill="#76309b" d="M540.753 84.681q-2.254 2.254-4.94 3.557-2.678 1.31-5.414 1.54t-5.097-.647q-.994-.36-1.232-1.275-.252-.914.382-1.908.425-.698 1.303-.986.886-.28 1.764.036 1.419.497 3.161.266t3.6-1.166 3.406-2.484q1.764-1.764 2.628-3.766.864-1.987.67-3.91-.195-1.922-1.75-3.477-1.973-1.973-4.968-1.973-3.003-.007-6.747 2.96-4.759 3.852-9.324 4.183-4.572.338-7.675-2.765-2.297-2.297-2.65-5.155t.972-5.868q1.325-3.024 4.04-5.739 2.08-2.08 4.27-3.074 2.188-.98 4.427-1.145 2.24-.15 4.464.375 1.13.28 1.678 1 .54.728.331 1.642-.28.986-1.217 1.462-.936.475-1.886.23-1.483-.418-2.995-.317-1.52.108-3.06.8-1.534.683-3.053 2.203-2.679 2.606-3.348 5.436-.67 2.815 1.447 4.932 1.13 1.13 2.686 1.52 1.555.388 3.736-.354t5.12-3.103q4.759-3.78 9.15-3.939t7.82 3.27q1.973 1.972 2.678 4.233.706 2.26.346 4.622-.346 2.362-1.584 4.623-1.231 2.253-3.14 4.161m23.954-23.954q-2.253 2.253-4.939 3.557-2.678 1.31-5.414 1.54t-5.098-.648q-.994-.36-1.231-1.274-.252-.914.381-1.908.432-.706 1.304-.986.885-.28 1.764.036 1.418.496 3.16.266 1.75-.238 3.6-1.166 1.858-.936 3.406-2.484 1.764-1.764 2.628-3.766.864-1.987.67-3.91-.195-1.922-1.75-3.477-1.973-1.973-4.968-1.973-3.002-.007-6.746 2.96-4.76 3.851-9.324 4.182-4.572.34-7.676-2.764-2.296-2.297-2.65-5.156t.98-5.875q1.318-3.017 4.032-5.73 2.08-2.08 4.27-3.075 2.188-.98 4.428-1.145 2.246-.159 4.464.374 1.13.281 1.677 1.001.54.727.331 1.642-.28.986-1.216 1.461t-1.887.23q-1.483-.417-2.995-.316-1.52.108-3.053.792-1.54.691-3.053 2.203-2.685 2.614-3.355 5.443-.67 2.815 1.447 4.932 1.13 1.13 2.686 1.52 1.555.388 3.737-.353t5.119-3.104q4.76-3.78 9.151-3.938t7.82 3.27q1.972 1.972 2.678 4.232.705 2.261.353 4.616-.353 2.368-1.592 4.63-1.23 2.253-3.139 4.16"/><rect width="66.992" height="55.37" x="459.727" y="-11.216" fill="none" rx="0" ry="0" transform="rotate(-45.1 576.44 -8.959)scale(1.02)"/><path fill="#fff" d="M543.079 82.384q-2.254 2.254-4.94 3.557-2.678 1.31-5.414 1.54t-5.097-.647q-.994-.36-1.231-1.275-.252-.914.381-1.908.425-.698 1.303-.986.886-.28 1.764.036 1.419.497 3.161.266 1.743-.23 3.6-1.166 1.858-.936 3.406-2.484 1.764-1.764 2.628-3.766.864-1.987.67-3.91-.195-1.922-1.75-3.477-1.973-1.973-4.968-1.973-3.003-.007-6.747 2.96-4.759 3.852-9.324 4.183-4.572.338-7.675-2.765-2.297-2.297-2.65-5.155t.973-5.868q1.324-3.024 4.039-5.739 2.08-2.08 4.27-3.074 2.188-.98 4.427-1.145 2.24-.15 4.464.375 1.13.28 1.678 1 .54.728.331 1.642-.28.986-1.217 1.462-.936.475-1.886.23-1.483-.418-2.995-.317-1.52.108-3.06.8-1.534.683-3.053 2.203-2.678 2.606-3.348 5.436-.67 2.815 1.447 4.932 1.13 1.13 2.686 1.52 1.555.388 3.737-.354t5.119-3.103q4.759-3.78 9.151-3.939t7.82 3.27q1.972 1.972 2.678 4.233.705 2.26.345 4.622-.345 2.362-1.584 4.623-1.231 2.253-3.139 4.161m23.954-23.954q-2.253 2.253-4.939 3.557-2.678 1.31-5.414 1.54t-5.098-.648q-.993-.36-1.231-1.274-.252-.914.382-1.908.432-.706 1.303-.986.885-.28 1.764.036 1.418.496 3.16.266 1.75-.238 3.6-1.166 1.858-.936 3.406-2.484 1.764-1.764 2.628-3.766.864-1.987.67-3.91-.195-1.922-1.75-3.477-1.973-1.973-4.968-1.973-3.002-.007-6.746 2.96-4.76 3.851-9.324 4.182-4.572.34-7.675-2.764-2.297-2.297-2.65-5.156t.98-5.875q1.317-3.017 4.031-5.73 2.081-2.08 4.27-3.075 2.189-.98 4.428-1.145 2.246-.159 4.464.374 1.13.281 1.677 1.001.54.727.332 1.642-.281.986-1.217 1.461t-1.887.23q-1.483-.417-2.995-.316-1.519.108-3.053.792-1.54.691-3.052 2.203-2.686 2.614-3.356 5.443-.67 2.815 1.448 4.932 1.13 1.13 2.685 1.52 1.555.388 3.737-.353t5.12-3.104q4.758-3.78 9.15-3.938t7.82 3.27q1.972 1.972 2.678 4.232t.353 4.616q-.353 2.368-1.591 4.63-1.232 2.253-3.14 4.16"/></g><path fill="transparent" stroke="transparent" d="M469 0h562v111H469z"/></g></svg>